<?xml version="1.0" encoding="utf-8"?>
<!-- Generator: Adobe Illustrator 22.0.1, SVG Export Plug-In . SVG Version: 6.00 Build 0)  -->
<svg version="1.1" id="Layer_1" xmlns="http://www.w3.org/2000/svg" xmlns:xlink="http://www.w3.org/1999/xlink" x="0px" y="0px"
	 viewBox="0 0 165.3 13" style="enable-background:new 0 0 165.3 13;" xml:space="preserve">
<style type="text/css">
	.st0{fill:#FFF337;}
	.st1{fill:#060606;}
	.st2{fill:none;stroke:#060606;stroke-width:0.65;}
	.st3{fill:#9B9B9B;}
</style>
<title>FA3C3A36-77A9-4DF3-9BE7-D85ED8E531A5</title>
<desc>Created with sketchtool.</desc>
<g id="Website">
	<g id="Brutask-website" transform="translate(-213.000000, -5390.000000)">
		<g id="Group-4" transform="translate(135.000000, 5373.000000)">
			<g id="Group-11" transform="translate(0.000000, 14.000000)">
				<g id="Logo" transform="translate(78.000000, 4.000000)">
					<rect id="Rectangle" x="62.3" y="0.8" class="st0" width="102.1" height="4.7"/>
					<g id="Group" transform="translate(3.928571, 0.000000)">
						<path id="Fill-4" class="st1" d="M67.1,6.2h-2.6v2.3h2.7c1,0,1.6-0.4,1.6-1.2v0C68.8,6.7,68.3,6.2,67.1,6.2L67.1,6.2z
							 M68.2,3.1c0-0.7-0.5-1.1-1.5-1.1h-2.2v2.2h2.1C67.6,4.3,68.2,4,68.2,3.1L68.2,3.1z M62.3,0h4.8c1.2,0,2.1,0.3,2.7,0.9
							c0.5,0.5,0.7,1.1,0.7,1.8v0c0,1.2-0.6,1.9-1.3,2.3C70.3,5.5,71,6.3,71,7.7v0c0,1.9-1.5,2.9-3.8,2.9h-4.9V0z"/>
						<path id="Stroke-6" class="st2" d="M67.1,6.2h-2.6v2.3h2.7c1,0,1.6-0.4,1.6-1.2v0C68.8,6.7,68.3,6.2,67.1,6.2z M68.2,3.1
							c0-0.7-0.5-1.1-1.5-1.1h-2.2v2.2h2.1C67.6,4.3,68.2,4,68.2,3.1L68.2,3.1z M62.3,0h4.8c1.2,0,2.1,0.3,2.7,0.9
							c0.5,0.5,0.7,1.1,0.7,1.8v0c0,1.2-0.6,1.9-1.3,2.3C70.3,5.5,71,6.3,71,7.7v0c0,1.9-1.5,2.9-3.8,2.9h-4.9V0z"/>
						<path id="Fill-8" class="st1" d="M81,5.2c1.1,0,1.7-0.6,1.7-1.5v0c0-1-0.7-1.5-1.8-1.5h-2.2v3.1H81z M76.5,0h4.7
							c1.3,0,2.3,0.4,3,1.1C84.7,1.7,85,2.5,85,3.5v0c0,1.7-0.9,2.8-2.2,3.3l2.5,3.8h-2.6l-2.2-3.4h-1.8v3.4h-2.3V0z"/>
						<path id="Stroke-10" class="st2" d="M81,5.2c1.1,0,1.7-0.6,1.7-1.5v0c0-1-0.7-1.5-1.8-1.5h-2.2v3.1H81z M76.5,0h4.7
							c1.3,0,2.3,0.4,3,1.1C84.7,1.7,85,2.5,85,3.5v0c0,1.7-0.9,2.8-2.2,3.3l2.5,3.8h-2.6l-2.2-3.4h-1.8v3.4h-2.3V0z"/>
						<path id="Fill-12" class="st1" d="M92.2,6.1V0h2.3v6c0,1.7,0.8,2.6,2.2,2.6c1.4,0,2.2-0.9,2.2-2.6V0h2.3v6
							c0,3.2-1.7,4.8-4.5,4.8C93.9,10.8,92.2,9.2,92.2,6.1"/>
						<path id="Stroke-14" class="st2" d="M92.2,6.1V0h2.3v6c0,1.7,0.8,2.6,2.2,2.6c1.4,0,2.2-0.9,2.2-2.6V0h2.3v6
							c0,3.2-1.7,4.8-4.5,4.8C93.9,10.8,92.2,9.2,92.2,6.1z"/>
						<path id="Fill-16" class="st1" d="M107.1,5.5L107.1,5.5c0-3.1,2.2-5.5,5.3-5.5c1.9,0,3.1,0.7,4,1.6l-1.4,1.7
							c-0.8-0.7-1.6-1.2-2.6-1.2c-1.7,0-3,1.5-3,3.3v0c0,1.8,1.2,3.3,3,3.3c1.2,0,1.9-0.5,2.7-1.2l1.4,1.5c-1.1,1.2-2.2,1.9-4.2,1.9
							C109.4,11,107.1,8.6,107.1,5.5"/>
						<path id="Stroke-18" class="st2" d="M107.1,5.5L107.1,5.5c0-3.1,2.2-5.5,5.3-5.5c1.9,0,3.1,0.7,4,1.6l-1.4,1.7
							c-0.8-0.7-1.6-1.2-2.6-1.2c-1.7,0-3,1.5-3,3.3v0c0,1.8,1.2,3.3,3,3.3c1.2,0,1.9-0.5,2.7-1.2l1.4,1.5c-1.1,1.2-2.2,1.9-4.2,1.9
							C109.4,11,107.1,8.6,107.1,5.5z"/>
						<polygon id="Fill-20" class="st1" points="122.8,10.6 125.1,10.6 125.1,0 122.8,0 						"/>
						<polygon id="Stroke-22" class="st2" points="122.8,10.6 125.1,10.6 125.1,0 122.8,0 						"/>
						<path id="Fill-23" class="st1" d="M136,5.2c1.1,0,1.7-0.6,1.7-1.5v0c0-1-0.7-1.5-1.8-1.5h-2.2v3.1H136z M131.5,0h4.7
							c1.3,0,2.3,0.4,3,1.1c0.6,0.6,0.9,1.4,0.9,2.4v0c0,1.7-0.9,2.8-2.2,3.3l2.5,3.8h-2.6l-2.2-3.4h-1.8v3.4h-2.3V0z"/>
						<path id="Stroke-24" class="st2" d="M136,5.2c1.1,0,1.7-0.6,1.7-1.5v0c0-1-0.7-1.5-1.8-1.5h-2.2v3.1H136z M131.5,0h4.7
							c1.3,0,2.3,0.4,3,1.1c0.6,0.6,0.9,1.4,0.9,2.4v0c0,1.7-0.9,2.8-2.2,3.3l2.5,3.8h-2.6l-2.2-3.4h-1.8v3.4h-2.3V0z"/>
						<path id="Fill-25" class="st1" d="M153.2,6.3l-1.4-3.4l-1.4,3.4H153.2z M150.8,0h2.1l4.4,10.7h-2.4L154,8.3h-4.3l-0.9,2.4
							h-2.3L150.8,0z"/>
						<path id="Stroke-26" class="st2" d="M153.2,6.3l-1.4-3.4l-1.4,3.4H153.2z M150.8,0h2.1l4.4,10.7h-2.4L154,8.3h-4.3l-0.9,2.4
							h-2.3L150.8,0z"/>
					</g>
				</g>
			</g>
		</g>
	</g>
</g>
<g>
	<path class="st3" d="M1.6,6.7V10H0.5V2h2.9c0.7,0,1.3,0.2,1.8,0.7c0.5,0.5,0.7,1,0.7,1.7C5.9,5,5.7,5.6,5.2,6
		C4.7,6.5,4.1,6.7,3.4,6.7H1.6z M3.2,5.7c0.5,0,0.9-0.1,1.1-0.4c0.3-0.2,0.4-0.6,0.4-1c0-0.4-0.1-0.8-0.4-1S3.7,3,3.2,3H1.6v2.7H3.2
		z"/>
	<path class="st3" d="M11,5.2c0.5,0.5,0.8,1.2,0.8,2.1c0,0.8-0.3,1.5-0.8,2.1c-0.5,0.5-1.2,0.8-2,0.8c-0.8,0-1.5-0.3-2-0.8
		C6.5,8.8,6.2,8.1,6.2,7.3c0-0.8,0.3-1.5,0.8-2.1c0.5-0.5,1.2-0.8,2-0.8C9.8,4.4,10.5,4.7,11,5.2z M10.2,8.7
		c0.3-0.3,0.5-0.8,0.5-1.4c0-0.6-0.2-1.1-0.5-1.4C9.9,5.5,9.5,5.3,9,5.3c-0.5,0-0.9,0.2-1.2,0.5C7.5,6.2,7.3,6.7,7.3,7.3
		c0,0.6,0.2,1.1,0.5,1.4C8.1,9,8.5,9.2,9,9.2C9.5,9.2,9.9,9,10.2,8.7z"/>
	<path class="st3" d="M17.2,4.6l1.4,4.1l1.2-4.1h1.1L19.2,10h-1.1l-1.4-4.1L15.2,10h-1.1l-1.8-5.4h1.2l1.2,4.1l1.4-4.1H17.2z"/>
	<path class="st3" d="M26.6,8.4c-0.2,0.5-0.5,0.9-0.9,1.2s-0.9,0.5-1.6,0.5c-0.8,0-1.4-0.3-1.9-0.8s-0.8-1.2-0.8-2.1
		c0-0.8,0.3-1.5,0.8-2.1c0.5-0.5,1.1-0.8,1.8-0.8c0.8,0,1.5,0.3,1.9,0.8c0.5,0.5,0.7,1.2,0.7,2.1c0,0.1,0,0.2,0,0.3h-4.1
		c0,0.5,0.2,0.9,0.5,1.2c0.3,0.3,0.7,0.5,1.2,0.5c0.8,0,1.3-0.4,1.5-1.1L26.6,8.4z M25.5,6.7c0-0.4-0.2-0.7-0.4-1
		c-0.3-0.3-0.6-0.4-1.1-0.4c-0.4,0-0.8,0.1-1,0.4c-0.3,0.3-0.4,0.6-0.4,1H25.5z"/>
	<path class="st3" d="M31,5.6c-0.2,0-0.3,0-0.5,0c-1,0-1.5,0.6-1.5,1.7V10H28V4.6h1v0.9c0.3-0.7,0.9-1,1.6-1c0.1,0,0.2,0,0.4,0V5.6z
		"/>
	<path class="st3" d="M36.8,8.4c-0.2,0.5-0.5,0.9-0.9,1.2s-0.9,0.5-1.6,0.5c-0.8,0-1.4-0.3-1.9-0.8c-0.5-0.5-0.8-1.2-0.8-2.1
		c0-0.8,0.3-1.5,0.8-2.1c0.5-0.5,1.1-0.8,1.8-0.8c0.8,0,1.5,0.3,1.9,0.8c0.5,0.5,0.7,1.2,0.7,2.1c0,0.1,0,0.2,0,0.3h-4.1
		c0,0.5,0.2,0.9,0.5,1.2c0.3,0.3,0.7,0.5,1.2,0.5c0.8,0,1.3-0.4,1.5-1.1L36.8,8.4z M35.8,6.7c0-0.4-0.2-0.7-0.4-1
		c-0.3-0.3-0.6-0.4-1.1-0.4c-0.4,0-0.8,0.1-1,0.4c-0.3,0.3-0.4,0.6-0.4,1H35.8z"/>
	<path class="st3" d="M42,9.2c-0.1,0.3-0.4,0.5-0.6,0.7c-0.3,0.2-0.6,0.3-1,0.3c-0.8,0-1.4-0.3-1.9-0.8c-0.5-0.5-0.7-1.2-0.7-2.1
		c0-0.8,0.2-1.5,0.7-2c0.5-0.6,1.1-0.8,1.9-0.8c0.4,0,0.8,0.1,1.1,0.3s0.5,0.4,0.6,0.6V1.8h1.1V9c0,0.4,0,0.7,0.1,1h-1
		C42.1,9.8,42,9.5,42,9.2L42,9.2z M39.3,8.7C39.6,9,40,9.2,40.5,9.2c0.5,0,0.9-0.2,1.1-0.6S42,7.8,42,7.2c0-0.6-0.1-1-0.4-1.4
		s-0.7-0.5-1.1-0.5s-0.9,0.2-1.2,0.5c-0.3,0.4-0.4,0.8-0.4,1.4C38.9,7.8,39,8.3,39.3,8.7z"/>
	<path class="st3" d="M47.7,10V1.8h1.1v3.5c0.1-0.3,0.4-0.5,0.7-0.7s0.7-0.3,1.1-0.3c0.8,0,1.4,0.3,1.8,0.8c0.4,0.5,0.7,1.2,0.7,2
		c0,0.8-0.2,1.5-0.7,2.1c-0.5,0.5-1.1,0.8-1.9,0.8c-0.8,0-1.4-0.3-1.8-0.9V10H47.7z M51.5,5.8c-0.3-0.3-0.7-0.5-1.2-0.5
		c-0.5,0-0.9,0.2-1.2,0.5c-0.3,0.3-0.5,0.8-0.5,1.4c0,0.6,0.2,1,0.5,1.4c0.3,0.4,0.7,0.5,1.2,0.5c0.5,0,0.9-0.2,1.2-0.5
		S52,7.8,52,7.2S51.8,6.2,51.5,5.8z"/>
	<path class="st3" d="M54.4,12.3l1.4-2.9l-2.3-4.8h1.2l1.7,3.8l1.6-3.8h1.1l-3.5,7.7H54.4z"/>
</g>
</svg>
